<svg width="22" height="22" viewBox="0 0 22 22" fill="none" xmlns="http://www.w3.org/2000/svg">
<path fill-rule="evenodd" clip-rule="evenodd" d="M21.556 16.3123C21.6067 16.3447 21.6486 16.3896 21.6777 16.4427C21.7068 16.4959 21.7222 16.5555 21.7225 16.6163V21.6399C21.7225 21.7359 21.6848 21.8279 21.6176 21.8958C21.5505 21.9637 21.4594 22.0018 21.3644 22.0018H16.3675C16.2725 22.0018 16.1815 21.9637 16.1143 21.8958C16.0472 21.8279 16.0094 21.7359 16.0094 21.6399V16.6163C16.0091 16.5472 16.0283 16.4796 16.0648 16.4212C16.1013 16.3628 16.1535 16.3163 16.2153 16.2869C16.4207 16.7257 16.7875 17.066 17.2376 17.2352C17.4851 17.3323 17.7492 17.379 18.0147 17.3727C18.2856 17.368 18.5527 17.3064 18.7988 17.1917L18.8722 17.1556C18.9367 17.1899 19.0047 17.2207 19.0728 17.2497C19.3309 17.3521 19.6072 17.3998 19.8844 17.3898C20.1615 17.3798 20.4337 17.3124 20.6841 17.1917C21.0678 17.0123 21.3756 16.7005 21.5524 16.3123H21.556ZM13.6068 0.756438C13.7108 0.593892 13.8729 0.478225 14.0592 0.43357C14.2456 0.388915 14.4418 0.418722 14.607 0.516772C14.7721 0.614822 14.8934 0.77354 14.9456 0.95981C14.9977 1.14608 14.9767 1.34551 14.8869 1.51649C14.5736 2.05939 13.0034 4.91865 12.7098 5.13581V7.26939V11.2036C12.7939 12.226 11.1665 12.3057 11.1665 11.2036V7.94621C11.0629 7.97973 10.9515 7.97973 10.8478 7.94621V11.2036C10.9141 12.2532 9.30273 12.2441 9.30273 11.2036V7.26939V5.15933C8.99658 4.95303 7.4139 2.05758 7.0988 1.51649C7.04942 1.43165 7.01706 1.33781 7.00357 1.24033C6.99007 1.14285 6.99571 1.04364 7.02015 0.948361C7.04458 0.853081 7.08735 0.7636 7.146 0.685026C7.20466 0.606452 7.27804 0.540324 7.36198 0.490418C7.44592 0.440512 7.53875 0.407805 7.6352 0.394165C7.73164 0.380525 7.82979 0.386218 7.92405 0.410921C8.01832 0.435623 8.10685 0.47885 8.18458 0.538134C8.26232 0.597418 8.32774 0.671597 8.37712 0.756438L9.90967 3.3913C10.6309 3.32524 11.3566 3.32524 12.0778 3.3913L13.6068 0.756438ZM18.7415 3.94505C19.1114 3.94505 19.4662 4.09358 19.7277 4.35795C19.9893 4.62233 20.1362 4.98089 20.1362 5.35478C20.1362 6.13474 19.6224 6.76631 18.8507 6.76631C18.0791 6.76631 17.3451 6.13474 17.3451 5.35478C17.3455 4.98073 17.4929 4.62216 17.7547 4.35784C18.0165 4.09352 18.3715 3.94505 18.7415 3.94505ZM20.5892 9.2564V15.4581C20.6733 16.4805 19.0441 16.5584 19.0441 15.4581V12.2007C18.9405 12.2342 18.8291 12.2342 18.7254 12.2007V15.4581C18.7935 16.5077 17.1821 16.4968 17.1821 15.4581V9.2564H16.9028V11.7175C16.9028 12.4993 15.7319 12.4993 15.7319 11.7175V8.9578C15.7319 8.27556 15.9611 7.78877 16.3765 7.47208C17.0926 6.92918 20.6393 6.92918 21.3555 7.47208C21.7708 7.78877 22.0018 8.27013 22 8.9578V11.7175C22 12.4993 20.8273 12.4993 20.8273 11.7175V9.2564H20.5892ZM3.00781 2.53352C3.37787 2.53352 3.7328 2.68199 3.99464 2.94631C4.25648 3.21063 4.40382 3.5692 4.4043 3.94324C4.4043 4.72321 3.89046 5.35478 3.11882 5.35478C2.34717 5.35478 1.61133 4.73044 1.61133 3.95048C1.61038 3.76459 1.64582 3.58035 1.7156 3.40836C1.78538 3.23637 1.88812 3.08003 2.01792 2.94833C2.14771 2.81664 2.30199 2.71219 2.47188 2.641C2.64176 2.56981 2.8239 2.53328 3.00781 2.53352ZM4.84652 7.8521V14.0538C4.93066 15.0763 3.30322 15.1541 3.30322 14.0538V10.7964C3.19958 10.8299 3.08818 10.8299 2.98454 10.7964V14.0538C3.05257 15.1034 1.43945 15.0925 1.43945 14.0538V7.8521H1.1709V10.315C1.1709 11.095 0 11.095 0 10.315V7.55351C0 6.8767 0.227376 6.38447 0.644531 6.06778C1.36068 5.52488 4.90739 5.52488 5.62175 6.06778C6.03711 6.38447 6.26628 6.86584 6.26628 7.55351V10.315C6.26628 11.0968 5.09359 11.0968 5.09359 10.315V7.8521H4.84652ZM10.8747 1.0424e-06C11.0715 -4.43759e-05 11.2661 0.0420184 11.4457 0.123424C11.6253 0.20483 11.7858 0.323734 11.9167 0.472322C12.1197 0.712259 12.2422 1.01107 12.2667 1.32582C12.2911 1.64057 12.2162 1.95505 12.0527 2.22407C11.9414 2.41025 11.7835 2.56348 11.5949 2.66832C11.4063 2.77316 11.1937 2.82591 10.9785 2.82126C10.6165 2.81979 10.2661 2.69194 9.98665 2.45933C9.83204 2.33708 9.70586 2.18201 9.61703 2.00507C9.5282 1.82814 9.47888 1.63364 9.47256 1.43533C9.46624 1.23702 9.50308 1.03972 9.58046 0.857376C9.65785 0.675028 9.77389 0.512077 9.92041 0.380029C10.1792 0.135438 10.5204 -0.000434192 10.8747 1.0424e-06ZM18.8507 21.1078C18.6418 21.1116 18.4344 21.0709 18.242 20.9884C18.076 20.918 17.9319 20.8036 17.8249 20.6572C17.7224 20.517 17.6683 20.3466 17.6709 20.1722H18.4658C18.4658 20.2274 18.4841 20.2809 18.5177 20.3243C18.5537 20.3705 18.6013 20.4062 18.6556 20.4274C18.7198 20.4538 18.7886 20.4668 18.8579 20.4654C18.9245 20.467 18.9906 20.4534 19.0513 20.4256C19.1036 20.4017 19.1487 20.3643 19.182 20.317C19.2123 20.269 19.2279 20.2129 19.2267 20.156C19.2284 20.0986 19.2093 20.0426 19.173 19.9985C19.1335 19.9485 19.0807 19.9109 19.0208 19.8899C18.9486 19.8633 18.8721 19.8504 18.7952 19.8519H18.4998V19.309H18.7988C18.8699 19.3104 18.9405 19.2975 19.0065 19.271C19.062 19.2483 19.1102 19.2108 19.1462 19.1625C19.18 19.1172 19.1976 19.0617 19.1963 19.005C19.1981 18.9513 19.1837 18.8983 19.1551 18.853C19.1255 18.8087 19.0847 18.7731 19.0369 18.7499C18.9809 18.7238 18.9196 18.7114 18.8579 18.7137C18.7915 18.7126 18.7257 18.7256 18.6646 18.7517C18.6118 18.7748 18.5661 18.8117 18.5321 18.8584C18.5004 18.9048 18.4829 18.9596 18.4819 19.0159H17.7246C17.7224 18.8455 17.7738 18.6788 17.8714 18.5399C17.9732 18.3976 18.1112 18.2857 18.2707 18.216C18.6403 18.0641 19.054 18.0641 19.4237 18.216C19.5771 18.2816 19.711 18.3863 19.8122 18.52C19.9047 18.648 19.9531 18.8031 19.95 18.9616C19.9532 19.0371 19.94 19.1123 19.9112 19.1821C19.8824 19.2518 19.8388 19.3143 19.7835 19.3651C19.6638 19.4714 19.5128 19.535 19.3538 19.5461V19.5696C19.5524 19.5768 19.7423 19.6536 19.891 19.7868C19.9501 19.8448 19.9966 19.9147 20.0275 19.992C20.0583 20.0693 20.0728 20.1523 20.07 20.2356C20.0726 20.4013 20.0189 20.5629 19.9178 20.6934C19.8047 20.8334 19.6571 20.9408 19.4899 21.0047C19.2895 21.0849 19.0752 21.1237 18.8597 21.1187L18.8507 21.1078ZM2.04639 19.9678V19.3941L3.13135 18.4893C3.19408 18.4359 3.25385 18.3792 3.31038 18.3192C3.35808 18.2711 3.3985 18.2163 3.43034 18.1563C3.45755 18.0999 3.47164 18.038 3.47152 17.9753C3.4734 17.9077 3.45733 17.8409 3.42497 17.7817C3.39337 17.7282 3.34743 17.685 3.29248 17.6568C3.23226 17.6283 3.16654 17.6134 3.10002 17.6134C3.03349 17.6134 2.96778 17.6283 2.90755 17.6568C2.8525 17.6869 2.8076 17.7329 2.77865 17.7889C2.74673 17.8534 2.73134 17.925 2.73389 17.997H1.9891C1.98285 17.8065 2.03068 17.6181 2.12695 17.4541C2.22023 17.3034 2.35536 17.1839 2.51546 17.1103C2.70031 17.0257 2.90163 16.9843 3.10449 16.9891C3.31244 16.9841 3.51914 17.0229 3.71143 17.1031C3.87064 17.1681 4.00799 17.278 4.1071 17.4198C4.20163 17.5598 4.25046 17.7262 4.24675 17.8957C4.24639 18.0115 4.22263 18.1261 4.17692 18.2323C4.11292 18.3656 4.02831 18.4878 3.92627 18.5942C3.7671 18.7668 3.59599 18.9276 3.41423 19.0756L3.14209 19.3054V19.3217H4.27718V19.9587L2.04639 19.9678ZM11.7144 14.8066V17.7455H10.932V15.5413H10.9212L10.2785 15.925V15.25L10.9946 14.8066H11.7144ZM5.94401 14.5225C5.97494 14.5777 5.99099 14.6401 5.99056 14.7035V21.6435C5.99056 21.7395 5.95284 21.8315 5.88568 21.8994C5.81853 21.9673 5.72745 22.0054 5.63249 22.0054H0.633789C0.538822 22.0054 0.447745 21.9673 0.380593 21.8994C0.313442 21.8315 0.275716 21.7395 0.275716 21.6435V14.6998C0.2776 14.6184 0.306617 14.54 0.358073 14.4773C0.419076 14.7844 0.557156 15.0705 0.759061 15.3082C0.960967 15.5459 1.21992 15.7271 1.51107 15.8345C1.75825 15.9328 2.02255 15.9796 2.28809 15.972C2.56149 15.9684 2.83109 15.9067 3.07943 15.7911L3.15283 15.7549C3.21729 15.7893 3.28353 15.82 3.35156 15.849C3.60981 15.9508 3.8859 15.9984 4.16294 15.9887C4.43999 15.9791 4.71218 15.9124 4.96289 15.7929C5.21489 15.6756 5.43583 15.4997 5.60761 15.2795C5.77939 15.0593 5.89713 14.8012 5.95117 14.5261L5.94401 14.5225ZM13.8216 11.627C13.8469 11.6769 13.8598 11.7321 13.8592 11.7881V21.6381C13.8592 21.7341 13.8215 21.8261 13.7543 21.894C13.6872 21.9619 13.5961 22 13.5011 22H8.50065C8.40568 22 8.31461 21.9619 8.24746 21.894C8.1803 21.8261 8.14258 21.7341 8.14258 21.6381V11.7899C8.14219 11.7149 8.16608 11.6418 8.21061 11.5818C8.26503 11.8985 8.4011 12.195 8.60511 12.4416C8.80911 12.6881 9.07383 12.876 9.37256 12.9861C9.62347 13.0848 9.89145 13.1315 10.1606 13.1234C10.4297 13.1153 10.6945 13.0526 10.9391 12.939L11.0125 12.901C11.0788 12.9354 11.145 12.968 11.2131 12.9951C11.4712 13.0973 11.7474 13.145 12.0245 13.1354C12.3015 13.1257 12.5738 13.0589 12.8244 12.939C13.0837 12.8194 13.3102 12.6375 13.484 12.4092C13.6578 12.1808 13.7737 11.9129 13.8216 11.6289V11.627Z" fill="url(#paint0_linear_394_11698)"/>
<defs>
<linearGradient id="paint0_linear_394_11698" x1="11" y1="0" x2="11" y2="22.0054" gradientUnits="userSpaceOnUse">
<stop stop-color="#92FF00"/>
<stop offset="1" stop-color="#70C200"/>
</linearGradient>
</defs>
</svg>
