<svg width="585" height="321" viewBox="0 0 585 321" fill="none" xmlns="http://www.w3.org/2000/svg">
<path d="M44.9391 7L11 40.9635V276.037L44.9391 310H575V40.9635L541.061 7H480.428L446.489 40.9635H362.976L329.036 7H44.9391Z" stroke="url(#paint0_linear_276_624)"/>
<path opacity="0.2" d="M36.0825 1L1 37.6448V284.355L36.0825 320H584V37.6448L548.918 1H466.242L431.16 36.6448H374.833L339.751 1H36.0825Z" stroke="url(#paint1_linear_276_624)"/>
<g filter="url(#filter0_i_276_624)">
<path d="M44.9391 7L11 40.9635V276.037L44.9391 310H575V40.9635L541.061 7H480.428L446.489 40.9635H362.976L329.036 7H44.9391Z"/>
<path d="M44.9391 7L11 40.9635V276.037L44.9391 310H575V40.9635L541.061 7H480.428L446.489 40.9635H362.976L329.036 7H44.9391Z" fill="black" fill-opacity="0.5"/>
</g>
<path d="M44.9391 7L11 40.9635V276.037L44.9391 310H575V40.9635L541.061 7H480.428L446.489 40.9635H362.976L329.036 7H44.9391Z" stroke="url(#paint2_linear_276_624)"/>
<path d="M300 7L348.773 56H464.227L513 7" stroke="url(#paint3_linear_276_624)"/>
<defs>
<filter id="filter0_i_276_624" x="10.5" y="6.5" width="735" height="308" filterUnits="userSpaceOnUse" color-interpolation-filters="sRGB">
<feFlood flood-opacity="0" result="BackgroundImageFix"/>
<feBlend mode="normal" in="SourceGraphic" in2="BackgroundImageFix" result="shape"/>
<feColorMatrix in="SourceAlpha" type="matrix" values="0 0 0 0 0 0 0 0 0 0 0 0 0 0 0 0 0 0 127 0" result="hardAlpha"/>
<feOffset dx="170" dy="4"/>
<feGaussianBlur stdDeviation="100"/>
<feComposite in2="hardAlpha" operator="arithmetic" k2="-1" k3="1"/>
<feColorMatrix type="matrix" values="0 0 0 0 0 0 0 0 0 0 0 0 0 0 0 0 0 0 1 0"/>
<feBlend mode="normal" in2="shape" result="effect1_innerShadow_276_624"/>
</filter>
<linearGradient id="paint0_linear_276_624" x1="90.5" y1="184" x2="647.5" y2="184" gradientUnits="userSpaceOnUse">
<stop stop-color="#FF0000"/>
<stop offset="0.425" stop-color="#FFF700"/>
<stop offset="0.93" stop-color="#872F0D"/>
</linearGradient>
<linearGradient id="paint1_linear_276_624" x1="83.1782" y1="187.762" x2="658.942" y2="187.762" gradientUnits="userSpaceOnUse">
<stop stop-color="#FF0000"/>
<stop offset="0.425" stop-color="#FFF700"/>
<stop offset="0.93" stop-color="#872F0D"/>
</linearGradient>
<linearGradient id="paint2_linear_276_624" x1="90.5" y1="184" x2="647.5" y2="184" gradientUnits="userSpaceOnUse">
<stop stop-color="#FF0000"/>
<stop offset="0.425" stop-color="#FFF700"/>
<stop offset="0.93" stop-color="#872F0D"/>
</linearGradient>
<linearGradient id="paint3_linear_276_624" x1="334.5" y1="59" x2="406.5" y2="58.2422" gradientUnits="userSpaceOnUse">
<stop stop-color="#FF0000" stop-opacity="0"/>
<stop offset="0.53" stop-color="#FFF700"/>
<stop offset="0.97" stop-color="#893209"/>
</linearGradient>
</defs>
</svg>
